<svg width="1024" height="1024" viewBox="0 0 1024 1024"
     xmlns="http://www.w3.org/2000/svg">
  <defs>
    <g id="cat" stroke-linecap="round" stroke-linejoin="round">
      <path stroke-width="35" fill-opacity="0" d="
            M297.500,651.638
            C228.224,651.638 -86.807,547.327 103.499,323.442
            C124.827,199.730 191.336,66.414 230.499,61.285
            C303.158,46.581 364.976,150.423 389.500,177.355
            C462.471,157.6 510.42,153.135 555.499,151.339
            C566.864,111.839 636.686,-9.120 696.499,2.250
            C761.98,-6.128 994.490,315.755 927.499,481.537
            C899.387,547.969 796.128,593.69 748.499,606.612
            C730.914,612.768 733.875,689.381 733.500,679.655
      "/>
      <path stroke-width="25" d="
            M1.499,458.523
            C32.14,449.848 93.356,462.157 119.499,475.533
            M14.500,562.585 
            C35.158,538.455 112.913,517.753 136.500,523.562
            M979.499,356.462 
            C964.259,349.563 902.52,347.773 862.500,368.469
            M978.500,443.514 
            C948.577,427.989 903.625,421.609 866.499,420.500
      "/>
      <path stroke-width="15" d="
            M555.499,427.504
            C563.665,426.721 580.1,413.434 581.499,406.492
            C592.257,415.225 601.724,418.670 612.432,418.218
      "/>
      <path stroke-width="0" d="
            M428.828,339.891
            C471.247,347.341 467.92,437.621 416.31,435.356
            C348.719,430.692 372.548,330.844 428.828,339.891
            Z
            M720.499,284.419 
            C660.179,282.495 646.854,376.466 711.500,382.477
            C765.571,384.642 768.323,288.747 720.499,284.419
            Z
            M273.499,171.351 
            C254.898,170.817 227.442,238.32 234.499,257.403
            C240.952,272.334 314.290,252.305 315.499,239.392
            C316.104,227.487 284.236,171.280 273.499,171.351
            Z
            M693.499,103.310 
            C682.812,102.503 647.643,164.853 654.499,176.354
            C661.356,187.855 734.71,187.258 737.500,175.354
            C740.928,163.449 703.985,103.512 693.499,103.310
            Z
      "/>
    </g>
  </defs>
  <use href="#cat" x="23" y="180" stroke="#6cf" fill="#6cf"/>
</svg>